#!OML:ASF F:\VICON\USERDATA\INSTALL\SteveWalk\SteveWalk.ASF
:FULLY-SPECIFIED
:DEGREES
395
root 0.527061 16.0413 37.1957 18.2813 -3.49377 -1.18055
lowerback -16.6799 1.74618 0.95815
upperback -4.99756 2.07348 1.23737
thorax 3.99691 1.02768 1.17103
lowerneck -4.97496 0.364692 0.190033
upperneck 11.8761 0.70477 -1.90703
head 4.85914 0.255357 -0.644661
rclavicle 1.04238e-014 9.54166e-015
rhumerus -14.1925 7.75919 -86.0128
rradius 43.0658
rwrist -12.4439
rhand -14.9988 -35.3621
rfingers 7.12502
rthumb 11.1659 -65.045
lclavicle 1.04238e-014 9.54166e-015
lhumerus -57.7232 24.6997 60.4258
lradius 14.0188
lwrist -17.5452
lhand -17.3885 -12.5984
lfingers 7.12502
lthumb 8.86044 17.1955
rfemur -10.443 -7.60009 23.5931
rtibia 24.8196
rfoot -26.1263 18.4834
rtoes 3.4208
lfemur -47.5629 4.5383 -20.9975
ltibia 19.3332
lfoot -5.76952 7.74133
ltoes -20.2394
396
root 0.53443 16.0268 37.4159 18.6573 -4.4445 -1.20537
lowerback -17.0597 2.00337 0.79721
upperback -5.16303 2.437 1.1276
thorax 4.01691 1.20581 1.22837
lowerneck -4.74321 0.41688 -0.0450337
upperneck 11.8255 0.759271 -1.60319
head 4.78957 0.288838 -0.49522
rclavicle 4.45868e-015 1.98785e-015
rhumerus -13.9484 8.43189 -86.0107
rradius 43.6995
rwrist -12.7368
rhand -14.7676 -35.4592
rfingers 7.12502
rthumb 11.3889 -65.1299
lclavicle 4.45868e-015 1.98785e-015
lhumerus -58.7943 24.3846 59.6704
lradius 14.0258
lwrist -17.177
lhand -17.2538 -13.1099
lfingers 7.12502
lthumb 8.99048 16.6785
rfemur -9.65822 -7.12199 23.1215
rtibia 24.181
rfoot -25.9319 19.0555
rtoes 3.64696
lfemur -47.7493 5.6887 -21.6144
ltibia 16.8862
lfoot -5.942 6.75752
ltoes -19.8596
397
root 0.534606 15.9923 37.6062 18.5825 -4.96612 -1.3201
lowerback -16.1193 2.08216 0.635791
upperback -5.61636 2.58974 1.09067
thorax 3.03136 1.28662 1.26032
lowerneck -4.39144 0.475251 -0.0144361
upperneck 11.9642 0.821392 -1.48543
head 4.76856 0.327599 -0.457663
rclavicle 2.14315e-016 -5.56597e-015
rhumerus -14.24 8.94338 -86.2076
rradius 44.3721
rwrist -12.867
rhand -15.0091 -35.0162
rfingers 7.12502
rthumb 11.156 -64.6996
lclavicle 2.14315e-016 -5.56597e-015
lhumerus -60.2224 23.7026 58.9958
lradius 14.1016
lwrist -16.6537
lhand -17.2572 -12.8064
lfingers 7.12502
lthumb 8.98717 16.9822
rfemur -8.482 -6.00256 22.9834
rtibia 23.6911
rfoot -25.7673 17.9264
rtoes 1.40686
lfemur -47.78 6.79008 -22.197
ltibia 14.7929
lfoot -6.03656 5.28168
ltoes -19.287
398
root 0.536725 15.9599 37.8074 18.6379 -5.34524 -1.69345
lowerback -16.3055 2.25328 0.842735
upperback -5.37556 2.77659 1.07862
thorax 3.39182 1.37621 1.18025
lowerneck -4.56446 0.462658 -0.0262419
upperneck 11.6248 0.782823 -1.32738
head 4.67719 0.31717 -0.402812
rclavicle 2.4918e-015 1.98785e-015
rhumerus -13.4225 9.0164 -86.1903
rradius 45.0945
rwrist -12.6012
rhand -16.2797 -36.4507
rfingers 7.12502
rthumb 9.93032 -66.1964
lclavicle 2.4918e-015 1.98785e-015
lhumerus -60.594 23.5357 58.7381
lradius 14.2002
lwrist -16.4473
lhand -17.1504 -12.532
lfingers 7.12502
lthumb 9.09019 17.2521
rfemur -7.34138 -5.24924 23.1373
rtibia 23.0471
rfoot -25.5843 17.0673
rtoes -2.10517
lfemur -48.196 8.44776 -23.1214
ltibia 13.4007
lfoot -6.51165 2.93929
ltoes -19.7571
399
root 0.536975 15.9467 38.0024 18.6495 -6.01949 -1.32378
lowerback -16.2066 2.36573 0.217937
upperback -5.32706 3.03376 0.859273
thorax 3.3677 1.50466 1.34663
lowerneck -4.5891 0.4588 -0.0230653
upperneck 11.4193 0.759144 -1.19184
head 4.6056 0.313374 -0.358181
rclavicle 7.06151e-015 3.18055e-015
rhumerus -12.9515 9.15975 -86.2142
rradius 45.3694
rwrist -12.9556
rhand -16.0994 -34.926
rfingers 7.12502
rthumb 10.1042 -64.6634
lclavicle 7.06151e-015 3.18055e-015
lhumerus -61.36 23.6052 57.7786
lradius 13.9901
lwrist -17.5321
lhand -17.9551 -13.4605
lfingers 7.12502
lthumb 8.31364 16.3559
rfemur -6.49655 -4.19641 22.403
rtibia 22.4013
rfoot -25.0379 16.9767
rtoes -3.94722
lfemur -48.4683 9.36888 -24.318
ltibia 12.6237
lfoot -6.98757 1.27884
ltoes -20.0685
400
root 0.568768 15.9349 38.2524 18.8398 -5.48198 -1.54327
lowerback -16.8381 2.30504 0.897593
upperback -5.31646 2.84085 0.734895
thorax 3.7566 1.40404 0.825154
lowerneck -4.49393 0.521213 0.180292
upperneck 11.3339 0.824087 -1.19401
head 4.55669 0.354693 -0.391578
rclavicle 1.92161e-014 9.93923e-016
rhumerus -12.8755 9.31682 -86.3501
rradius 45.8252
rwrist -12.9572
rhand -16.4591 -33.9674
rfingers 7.12502
rthumb 9.75726 -63.7214
lclavicle 1.92161e-014 9.93923e-016
lhumerus -62.8752 24.4629 55.0232
lradius 12.986
lwrist -21.2284
lhand -20.6096 -16.6921
lfingers 7.12502
lthumb 5.75123 13.2099
rfemur -5.48911 -4.98921 22.34
rtibia 21.892
rfoot -23.9897 18.7986
rtoes -1.33003
lfemur -48.7284 9.67967 -24.9387
ltibia 12.0772
lfoot -7.46758 -1.32533
ltoes -15.1103
401
root 0.589526 15.904 38.4849 18.782 -5.17681 -1.63542
lowerback -17.0242 2.26809 1.17654
upperback -5.20387 2.74762 0.617371
thorax 3.99377 1.35677 0.536706
lowerneck -4.62959 0.493287 0.222668
upperneck 11.2078 0.763698 -1.03759
head 4.53679 0.334529 -0.349078
rclavicle -2.2941e-014 -5.76476e-015
rhumerus -12.804 9.25039 -86.4135
rradius 46.5945
rwrist -12.6638
rhand -16.5865 -34.126
rfingers 7.12502
rthumb 9.63434 -63.8857
lclavicle -2.2941e-014 -5.76476e-015
lhumerus -63.646 24.8761 53.4079
lradius 12.6767
lwrist -22.2489
lhand -20.5011 -16.9492
lfingers 7.12502
lthumb 5.85607 12.9499
rfemur -4.3539 -4.95647 22.1655
rtibia 21.6398
rfoot -22.0327 20.1497
rtoes 3.21352
lfemur -48.642 9.12951 -24.6858
ltibia 11.7116
lfoot -7.38669 -2.19611
ltoes -11.4306
402
root 0.591465 15.8814 38.702 18.521 -5.32212 -1.17539
lowerback -16.8354 2.19701 0.451626
upperback -5.02634 2.78625 0.444824
thorax 4.05721 1.37531 0.768281
lowerneck -5.02409 0.40161 0.0420919
upperneck 11.152 0.621864 -0.729668
head 4.59299 0.271584 -0.219925
rclavicle 2.02434e-014 1.98785e-015
rhumerus -12.6856 9.20613 -86.3864
rradius 47.0547
rwrist -13.0195
rhand -16.5219 -34.0882
rfingers 7.12502
rthumb 9.69662 -63.845
lclavicle 2.02434e-014 1.98785e-015
lhumerus -64.0138 24.9839 52.7265
lradius 12.8838
lwrist -22.0397
lhand -18.9669 -15.2273
lfingers 7.12502
lthumb 7.3371 14.6255
rfemur -3.53953 -4.38114 21.5119
rtibia 21.7367
rfoot -21.5277 19.6474
rtoes -0.417806
lfemur -48.2334 8.26199 -24.6178
ltibia 11.6861
lfoot -7.56815 -2.22403
ltoes -9.69122
